<mxfile host="app.diagrams.net" modified="2023-06-21T08:23:46.143Z" agent="Mozilla/5.0 (Windows NT 10.0; Win64; x64) AppleWebKit/537.36 (KHTML, like Gecko) Chrome/114.0.0.0 Safari/537.36" etag="MZvwYcMR3fcVvez3njQ9" version="21.5.0" type="github">
  <diagram name="Page-1" id="74e2e168-ea6b-b213-b513-2b3c1d86103e">
    <mxGraphModel dx="1434" dy="796" grid="1" gridSize="10" guides="1" tooltips="1" connect="1" arrows="1" fold="1" page="1" pageScale="1" pageWidth="1100" pageHeight="850" background="none" math="0" shadow="0">
      <root>
        <mxCell id="0" />
        <mxCell id="1" parent="0" />
        <mxCell id="77e6c97f196da883-1" value="sso" style="swimlane;html=1;childLayout=stackLayout;startSize=20;rounded=0;shadow=0;labelBackgroundColor=none;strokeWidth=1;fontFamily=Verdana;fontSize=8;align=center;" parent="1" vertex="1">
          <mxGeometry x="70" y="43" width="1010" height="774" as="geometry" />
        </mxCell>
        <mxCell id="77e6c97f196da883-2" value="浏览器" style="swimlane;html=1;startSize=20;fillColor=#60a917;fontColor=#ffffff;strokeColor=#2D7600;" parent="77e6c97f196da883-1" vertex="1">
          <mxGeometry y="20" width="160" height="754" as="geometry" />
        </mxCell>
        <mxCell id="77e6c97f196da883-8" value="访问应用" style="rounded=1;whiteSpace=wrap;html=1;shadow=0;labelBackgroundColor=none;strokeWidth=1;fontFamily=Verdana;fontSize=8;align=center;aspect=fixed;" parent="77e6c97f196da883-2" vertex="1">
          <mxGeometry x="40.66" y="27" width="58.67" height="40" as="geometry" />
        </mxCell>
        <mxCell id="E34tmJ6UfjDeEhPb9iA5-25" value="重定向" style="whiteSpace=wrap;html=1;fontSize=8;fontFamily=Verdana;rounded=1;shadow=0;labelBackgroundColor=none;strokeWidth=1;" parent="77e6c97f196da883-2" vertex="1">
          <mxGeometry x="25" y="174.5" width="90" height="33" as="geometry" />
        </mxCell>
        <mxCell id="E34tmJ6UfjDeEhPb9iA5-50" value="重定向" style="whiteSpace=wrap;html=1;fontSize=8;fontFamily=Verdana;rounded=1;shadow=0;labelBackgroundColor=none;strokeWidth=1;" parent="77e6c97f196da883-2" vertex="1">
          <mxGeometry x="25" y="287" width="90" height="33" as="geometry" />
        </mxCell>
        <mxCell id="E34tmJ6UfjDeEhPb9iA5-54" value="登录" style="rhombus;whiteSpace=wrap;html=1;fontSize=8;fontFamily=Verdana;rounded=1;shadow=0;labelBackgroundColor=none;strokeWidth=1;" parent="77e6c97f196da883-2" vertex="1">
          <mxGeometry x="40" y="362" width="60" height="63" as="geometry" />
        </mxCell>
        <mxCell id="E34tmJ6UfjDeEhPb9iA5-68" value="重定向" style="whiteSpace=wrap;html=1;fontSize=8;fontFamily=Verdana;rounded=1;shadow=0;labelBackgroundColor=none;strokeWidth=1;" parent="77e6c97f196da883-2" vertex="1">
          <mxGeometry x="25" y="467" width="90" height="33" as="geometry" />
        </mxCell>
        <mxCell id="E34tmJ6UfjDeEhPb9iA5-75" value="重定向" style="whiteSpace=wrap;html=1;fontSize=8;fontFamily=Verdana;rounded=1;shadow=0;labelBackgroundColor=none;strokeWidth=1;" parent="77e6c97f196da883-2" vertex="1">
          <mxGeometry x="25" y="557" width="90" height="33" as="geometry" />
        </mxCell>
        <mxCell id="77e6c97f196da883-26" style="edgeStyle=orthogonalEdgeStyle;rounded=1;html=1;labelBackgroundColor=none;startArrow=none;startFill=0;startSize=5;endArrow=classicThin;endFill=1;endSize=5;jettySize=auto;orthogonalLoop=1;strokeWidth=1;fontFamily=Verdana;fontSize=8" parent="77e6c97f196da883-1" source="77e6c97f196da883-8" target="77e6c97f196da883-11" edge="1">
          <mxGeometry relative="1" as="geometry" />
        </mxCell>
        <mxCell id="77e6c97f196da883-3" value="前端（应用A）" style="swimlane;html=1;startSize=20;fillColor=#1ba1e2;fontColor=#ffffff;strokeColor=#006EAF;" parent="77e6c97f196da883-1" vertex="1">
          <mxGeometry x="160" y="20" width="180" height="754" as="geometry" />
        </mxCell>
        <mxCell id="77e6c97f196da883-11" value="渲染页面并加载数据" style="rounded=1;whiteSpace=wrap;html=1;shadow=0;labelBackgroundColor=none;strokeWidth=1;fontFamily=Verdana;fontSize=8;align=center;" parent="77e6c97f196da883-3" vertex="1">
          <mxGeometry x="40" y="27" width="90" height="40" as="geometry" />
        </mxCell>
        <mxCell id="E34tmJ6UfjDeEhPb9iA5-11" value="记录当前访问地址，作为最后回调地址forward" style="whiteSpace=wrap;html=1;fontSize=8;fontFamily=Verdana;rounded=1;shadow=0;labelBackgroundColor=none;strokeWidth=1;" parent="77e6c97f196da883-3" vertex="1">
          <mxGeometry x="30" y="167" width="110" height="48" as="geometry" />
        </mxCell>
        <mxCell id="E34tmJ6UfjDeEhPb9iA5-27" value="反向代理" style="whiteSpace=wrap;html=1;fontSize=8;fontFamily=Verdana;rounded=1;shadow=0;labelBackgroundColor=none;strokeWidth=1;" parent="77e6c97f196da883-3" vertex="1">
          <mxGeometry x="42.5" y="237" width="85" height="33" as="geometry" />
        </mxCell>
        <mxCell id="E34tmJ6UfjDeEhPb9iA5-77" value="反向代理" style="whiteSpace=wrap;html=1;fontSize=8;fontFamily=Verdana;rounded=1;shadow=0;labelBackgroundColor=none;strokeWidth=1;" parent="77e6c97f196da883-3" vertex="1">
          <mxGeometry x="42.5" y="587" width="85" height="33" as="geometry" />
        </mxCell>
        <mxCell id="77e6c97f196da883-4" value="后端（应用A）" style="swimlane;html=1;startSize=20;fillColor=#d80073;fontColor=#ffffff;strokeColor=#A50040;" parent="77e6c97f196da883-1" vertex="1">
          <mxGeometry x="340" y="20" width="160" height="754" as="geometry" />
        </mxCell>
        <mxCell id="E34tmJ6UfjDeEhPb9iA5-7" style="edgeStyle=orthogonalEdgeStyle;rounded=0;orthogonalLoop=1;jettySize=auto;html=1;entryX=0.5;entryY=1;entryDx=0;entryDy=0;" parent="77e6c97f196da883-4" source="E34tmJ6UfjDeEhPb9iA5-3" target="77e6c97f196da883-12" edge="1">
          <mxGeometry relative="1" as="geometry" />
        </mxCell>
        <mxCell id="E34tmJ6UfjDeEhPb9iA5-3" value="security" style="rhombus;whiteSpace=wrap;html=1;fontSize=8;fontFamily=Verdana;rounded=1;shadow=0;labelBackgroundColor=none;strokeWidth=1;fillColor=#f8cecc;strokeColor=#b85450;" parent="77e6c97f196da883-4" vertex="1">
          <mxGeometry x="35" y="87" width="80" height="80" as="geometry" />
        </mxCell>
        <mxCell id="77e6c97f196da883-12" value="组织数据并返回" style="rounded=1;whiteSpace=wrap;html=1;shadow=0;labelBackgroundColor=none;strokeWidth=1;fontFamily=Verdana;fontSize=8;align=center;" parent="77e6c97f196da883-4" vertex="1">
          <mxGeometry x="30" y="28" width="90" height="38" as="geometry" />
        </mxCell>
        <mxCell id="E34tmJ6UfjDeEhPb9iA5-16" value="starter：获取 oauth client 配置 发起sso 流程" style="whiteSpace=wrap;html=1;fontSize=8;fontFamily=Verdana;rounded=1;shadow=0;labelBackgroundColor=none;strokeWidth=1;fillColor=#ffe6cc;strokeColor=#d79b00;" parent="77e6c97f196da883-4" vertex="1">
          <mxGeometry x="15" y="223.5" width="120" height="60" as="geometry" />
        </mxCell>
        <mxCell id="E34tmJ6UfjDeEhPb9iA5-81" value="state校验" style="whiteSpace=wrap;html=1;fontSize=8;fontFamily=Verdana;rounded=1;shadow=0;labelBackgroundColor=none;strokeWidth=1;" parent="77e6c97f196da883-4" vertex="1">
          <mxGeometry x="32.5" y="587" width="85" height="33" as="geometry" />
        </mxCell>
        <mxCell id="E34tmJ6UfjDeEhPb9iA5-85" value="get userId" style="whiteSpace=wrap;html=1;fontSize=8;fontFamily=Verdana;rounded=1;shadow=0;labelBackgroundColor=none;strokeWidth=1;" parent="77e6c97f196da883-4" vertex="1">
          <mxGeometry x="32.5" y="637" width="85" height="33" as="geometry" />
        </mxCell>
        <mxCell id="E34tmJ6UfjDeEhPb9iA5-90" value="1、session create&lt;br&gt;2、securityContext create" style="whiteSpace=wrap;html=1;fontSize=8;fontFamily=Verdana;rounded=1;shadow=0;labelBackgroundColor=none;strokeWidth=1;fillColor=#dae8fc;strokeColor=#6c8ebf;" parent="77e6c97f196da883-4" vertex="1">
          <mxGeometry x="15" y="697" width="130" height="43" as="geometry" />
        </mxCell>
        <mxCell id="77e6c97f196da883-5" value="oauth server" style="swimlane;html=1;startSize=20;fillColor=#0050ef;fontColor=#ffffff;strokeColor=#001DBC;" parent="77e6c97f196da883-1" vertex="1">
          <mxGeometry x="500" y="20" width="180" height="754" as="geometry" />
        </mxCell>
        <mxCell id="77e6c97f196da883-34" style="edgeStyle=orthogonalEdgeStyle;rounded=1;html=1;labelBackgroundColor=none;startArrow=none;startFill=0;startSize=5;endArrow=classicThin;endFill=1;endSize=5;jettySize=auto;orthogonalLoop=1;strokeColor=#000000;strokeWidth=1;fontFamily=Verdana;fontSize=8;fontColor=#000000;" parent="77e6c97f196da883-5" edge="1">
          <mxGeometry relative="1" as="geometry">
            <mxPoint x="80" y="320" as="targetPoint" />
          </mxGeometry>
        </mxCell>
        <mxCell id="77e6c97f196da883-35" style="edgeStyle=orthogonalEdgeStyle;rounded=1;html=1;labelBackgroundColor=none;startArrow=none;startFill=0;startSize=5;endArrow=classicThin;endFill=1;endSize=5;jettySize=auto;orthogonalLoop=1;strokeWidth=1;fontFamily=Verdana;fontSize=8" parent="77e6c97f196da883-5" edge="1">
          <mxGeometry relative="1" as="geometry">
            <mxPoint x="80" y="400" as="targetPoint" />
          </mxGeometry>
        </mxCell>
        <mxCell id="E34tmJ6UfjDeEhPb9iA5-19" value="创建challenge，会话保存相关参数" style="whiteSpace=wrap;html=1;fontSize=8;fontFamily=Verdana;rounded=1;shadow=0;labelBackgroundColor=none;strokeWidth=1;" parent="77e6c97f196da883-5" vertex="1">
          <mxGeometry x="40" y="302" width="100" height="48" as="geometry" />
        </mxCell>
        <mxCell id="E34tmJ6UfjDeEhPb9iA5-83" value="token&lt;br&gt;exchange" style="whiteSpace=wrap;html=1;fontSize=8;fontFamily=Verdana;rounded=1;shadow=0;labelBackgroundColor=none;strokeWidth=1;" parent="77e6c97f196da883-5" vertex="1">
          <mxGeometry x="47.5" y="587" width="85" height="33" as="geometry" />
        </mxCell>
        <mxCell id="E34tmJ6UfjDeEhPb9iA5-71" value="生成code并callback" style="whiteSpace=wrap;html=1;fontSize=8;fontFamily=Verdana;rounded=1;shadow=0;labelBackgroundColor=none;strokeWidth=1;" parent="77e6c97f196da883-5" vertex="1">
          <mxGeometry x="40" y="517" width="90" height="33" as="geometry" />
        </mxCell>
        <mxCell id="77e6c97f196da883-6" value="idp" style="swimlane;html=1;startSize=20;aspect=fixed;fillColor=#6a00ff;fontColor=#ffffff;strokeColor=#3700CC;" parent="77e6c97f196da883-1" vertex="1">
          <mxGeometry x="680" y="20" width="170" height="754" as="geometry" />
        </mxCell>
        <mxCell id="77e6c97f196da883-37" style="edgeStyle=orthogonalEdgeStyle;rounded=1;html=1;labelBackgroundColor=none;startArrow=none;startFill=0;startSize=5;endArrow=classicThin;endFill=1;endSize=5;jettySize=auto;orthogonalLoop=1;strokeWidth=1;fontFamily=Verdana;fontSize=8" parent="77e6c97f196da883-6" edge="1">
          <mxGeometry relative="1" as="geometry">
            <mxPoint x="80" y="460" as="sourcePoint" />
          </mxGeometry>
        </mxCell>
        <mxCell id="E34tmJ6UfjDeEhPb9iA5-21" value="基于challenge渲染登录界面" style="whiteSpace=wrap;html=1;fontSize=8;fontFamily=Verdana;rounded=1;shadow=0;labelBackgroundColor=none;strokeWidth=1;" parent="77e6c97f196da883-6" vertex="1">
          <mxGeometry x="40" y="305" width="95" height="43" as="geometry" />
        </mxCell>
        <mxCell id="E34tmJ6UfjDeEhPb9iA5-57" value="校验" style="rhombus;whiteSpace=wrap;html=1;fontSize=8;fontFamily=Verdana;rounded=1;shadow=0;labelBackgroundColor=none;strokeWidth=1;" parent="77e6c97f196da883-6" vertex="1">
          <mxGeometry x="57.5" y="407" width="60" height="63" as="geometry" />
        </mxCell>
        <mxCell id="77e6c97f196da883-7" value="系统管理" style="swimlane;html=1;startSize=20;fillColor=#a20025;fontColor=#ffffff;strokeColor=#6F0000;" parent="77e6c97f196da883-1" vertex="1">
          <mxGeometry x="850" y="20" width="160" height="754" as="geometry" />
        </mxCell>
        <mxCell id="E34tmJ6UfjDeEhPb9iA5-62" value="校验支撑" style="whiteSpace=wrap;html=1;fontSize=8;fontFamily=Verdana;rounded=1;shadow=0;labelBackgroundColor=none;strokeWidth=1;" parent="77e6c97f196da883-7" vertex="1">
          <mxGeometry x="30" y="417" width="100" height="33" as="geometry" />
        </mxCell>
        <mxCell id="E34tmJ6UfjDeEhPb9iA5-87" value="基于userId查询" style="whiteSpace=wrap;html=1;fontSize=8;fontFamily=Verdana;rounded=1;shadow=0;labelBackgroundColor=none;strokeWidth=1;" parent="77e6c97f196da883-7" vertex="1">
          <mxGeometry x="37.5" y="657" width="85" height="33" as="geometry" />
        </mxCell>
        <mxCell id="E34tmJ6UfjDeEhPb9iA5-4" value="" style="edgeStyle=orthogonalEdgeStyle;rounded=0;orthogonalLoop=1;jettySize=auto;html=1;" parent="77e6c97f196da883-1" source="77e6c97f196da883-11" target="E34tmJ6UfjDeEhPb9iA5-3" edge="1">
          <mxGeometry relative="1" as="geometry">
            <Array as="points">
              <mxPoint x="240" y="147" />
            </Array>
          </mxGeometry>
        </mxCell>
        <mxCell id="E34tmJ6UfjDeEhPb9iA5-6" value="Text" style="edgeLabel;html=1;align=center;verticalAlign=middle;resizable=0;points=[];" parent="E34tmJ6UfjDeEhPb9iA5-4" vertex="1" connectable="0">
          <mxGeometry x="-0.011" y="1" relative="1" as="geometry">
            <mxPoint as="offset" />
          </mxGeometry>
        </mxCell>
        <mxCell id="E34tmJ6UfjDeEhPb9iA5-8" style="edgeStyle=orthogonalEdgeStyle;rounded=0;orthogonalLoop=1;jettySize=auto;html=1;entryX=1;entryY=0.5;entryDx=0;entryDy=0;" parent="77e6c97f196da883-1" source="77e6c97f196da883-12" target="77e6c97f196da883-11" edge="1">
          <mxGeometry relative="1" as="geometry" />
        </mxCell>
        <mxCell id="E34tmJ6UfjDeEhPb9iA5-12" value="" style="edgeStyle=orthogonalEdgeStyle;rounded=0;orthogonalLoop=1;jettySize=auto;html=1;" parent="77e6c97f196da883-1" source="E34tmJ6UfjDeEhPb9iA5-3" target="E34tmJ6UfjDeEhPb9iA5-11" edge="1">
          <mxGeometry relative="1" as="geometry">
            <Array as="points">
              <mxPoint x="420" y="211" />
            </Array>
          </mxGeometry>
        </mxCell>
        <mxCell id="E34tmJ6UfjDeEhPb9iA5-13" value="返回401" style="edgeLabel;html=1;align=center;verticalAlign=middle;resizable=0;points=[];" parent="E34tmJ6UfjDeEhPb9iA5-12" vertex="1" connectable="0">
          <mxGeometry x="0.0533" y="1" relative="1" as="geometry">
            <mxPoint as="offset" />
          </mxGeometry>
        </mxCell>
        <mxCell id="E34tmJ6UfjDeEhPb9iA5-22" value="" style="edgeStyle=orthogonalEdgeStyle;rounded=0;orthogonalLoop=1;jettySize=auto;html=1;" parent="77e6c97f196da883-1" source="E34tmJ6UfjDeEhPb9iA5-19" target="E34tmJ6UfjDeEhPb9iA5-21" edge="1">
          <mxGeometry relative="1" as="geometry" />
        </mxCell>
        <mxCell id="E34tmJ6UfjDeEhPb9iA5-26" value="" style="edgeStyle=orthogonalEdgeStyle;rounded=0;orthogonalLoop=1;jettySize=auto;html=1;" parent="77e6c97f196da883-1" source="E34tmJ6UfjDeEhPb9iA5-11" target="E34tmJ6UfjDeEhPb9iA5-25" edge="1">
          <mxGeometry relative="1" as="geometry" />
        </mxCell>
        <mxCell id="E34tmJ6UfjDeEhPb9iA5-28" value="" style="edgeStyle=orthogonalEdgeStyle;rounded=0;orthogonalLoop=1;jettySize=auto;html=1;" parent="77e6c97f196da883-1" source="E34tmJ6UfjDeEhPb9iA5-25" target="E34tmJ6UfjDeEhPb9iA5-27" edge="1">
          <mxGeometry relative="1" as="geometry">
            <Array as="points">
              <mxPoint x="70" y="274" />
            </Array>
          </mxGeometry>
        </mxCell>
        <mxCell id="E34tmJ6UfjDeEhPb9iA5-29" style="edgeStyle=orthogonalEdgeStyle;rounded=0;orthogonalLoop=1;jettySize=auto;html=1;entryX=0;entryY=0.5;entryDx=0;entryDy=0;" parent="77e6c97f196da883-1" source="E34tmJ6UfjDeEhPb9iA5-27" target="E34tmJ6UfjDeEhPb9iA5-16" edge="1">
          <mxGeometry relative="1" as="geometry" />
        </mxCell>
        <mxCell id="E34tmJ6UfjDeEhPb9iA5-51" style="edgeStyle=orthogonalEdgeStyle;rounded=0;orthogonalLoop=1;jettySize=auto;html=1;entryX=1;entryY=0.5;entryDx=0;entryDy=0;" parent="77e6c97f196da883-1" source="E34tmJ6UfjDeEhPb9iA5-16" target="E34tmJ6UfjDeEhPb9iA5-50" edge="1">
          <mxGeometry relative="1" as="geometry">
            <Array as="points">
              <mxPoint x="415" y="324" />
              <mxPoint x="235" y="324" />
            </Array>
          </mxGeometry>
        </mxCell>
        <mxCell id="E34tmJ6UfjDeEhPb9iA5-52" value="携带 oauth 必备参数" style="edgeLabel;html=1;align=center;verticalAlign=middle;resizable=0;points=[];" parent="E34tmJ6UfjDeEhPb9iA5-51" vertex="1" connectable="0">
          <mxGeometry x="-0.1232" y="1" relative="1" as="geometry">
            <mxPoint x="1" as="offset" />
          </mxGeometry>
        </mxCell>
        <mxCell id="E34tmJ6UfjDeEhPb9iA5-53" style="edgeStyle=orthogonalEdgeStyle;rounded=0;orthogonalLoop=1;jettySize=auto;html=1;entryX=0;entryY=0.5;entryDx=0;entryDy=0;" parent="77e6c97f196da883-1" source="E34tmJ6UfjDeEhPb9iA5-50" target="E34tmJ6UfjDeEhPb9iA5-19" edge="1">
          <mxGeometry relative="1" as="geometry">
            <Array as="points">
              <mxPoint x="70" y="347" />
              <mxPoint x="328" y="347" />
              <mxPoint x="328" y="346" />
            </Array>
          </mxGeometry>
        </mxCell>
        <mxCell id="E34tmJ6UfjDeEhPb9iA5-59" style="edgeStyle=orthogonalEdgeStyle;rounded=0;orthogonalLoop=1;jettySize=auto;html=1;entryX=1;entryY=0.5;entryDx=0;entryDy=0;" parent="77e6c97f196da883-1" source="E34tmJ6UfjDeEhPb9iA5-21" target="E34tmJ6UfjDeEhPb9iA5-54" edge="1">
          <mxGeometry relative="1" as="geometry">
            <Array as="points">
              <mxPoint x="768" y="414" />
              <mxPoint x="410" y="414" />
            </Array>
          </mxGeometry>
        </mxCell>
        <mxCell id="E34tmJ6UfjDeEhPb9iA5-58" value="" style="edgeStyle=orthogonalEdgeStyle;rounded=0;orthogonalLoop=1;jettySize=auto;html=1;" parent="77e6c97f196da883-1" source="E34tmJ6UfjDeEhPb9iA5-54" target="E34tmJ6UfjDeEhPb9iA5-57" edge="1">
          <mxGeometry relative="1" as="geometry">
            <Array as="points">
              <mxPoint x="70" y="457" />
              <mxPoint x="419" y="457" />
              <mxPoint x="419" y="459" />
            </Array>
          </mxGeometry>
        </mxCell>
        <mxCell id="E34tmJ6UfjDeEhPb9iA5-63" style="edgeStyle=orthogonalEdgeStyle;rounded=0;orthogonalLoop=1;jettySize=auto;html=1;entryX=0.925;entryY=0.397;entryDx=0;entryDy=0;entryPerimeter=0;" parent="77e6c97f196da883-1" source="E34tmJ6UfjDeEhPb9iA5-62" target="E34tmJ6UfjDeEhPb9iA5-57" edge="1">
          <mxGeometry relative="1" as="geometry" />
        </mxCell>
        <mxCell id="E34tmJ6UfjDeEhPb9iA5-64" value="api" style="edgeLabel;html=1;align=center;verticalAlign=middle;resizable=0;points=[];" parent="E34tmJ6UfjDeEhPb9iA5-63" vertex="1" connectable="0">
          <mxGeometry x="0.209" y="-2" relative="1" as="geometry">
            <mxPoint as="offset" />
          </mxGeometry>
        </mxCell>
        <mxCell id="E34tmJ6UfjDeEhPb9iA5-69" style="edgeStyle=orthogonalEdgeStyle;rounded=0;orthogonalLoop=1;jettySize=auto;html=1;entryX=1;entryY=0.5;entryDx=0;entryDy=0;" parent="77e6c97f196da883-1" source="E34tmJ6UfjDeEhPb9iA5-57" target="E34tmJ6UfjDeEhPb9iA5-68" edge="1">
          <mxGeometry relative="1" as="geometry">
            <Array as="points">
              <mxPoint x="768" y="504" />
              <mxPoint x="426" y="504" />
            </Array>
          </mxGeometry>
        </mxCell>
        <mxCell id="E34tmJ6UfjDeEhPb9iA5-70" value="通知 oauth" style="edgeLabel;html=1;align=center;verticalAlign=middle;resizable=0;points=[];" parent="E34tmJ6UfjDeEhPb9iA5-69" vertex="1" connectable="0">
          <mxGeometry x="0.0818" y="-1" relative="1" as="geometry">
            <mxPoint as="offset" />
          </mxGeometry>
        </mxCell>
        <mxCell id="E34tmJ6UfjDeEhPb9iA5-72" value="" style="edgeStyle=orthogonalEdgeStyle;rounded=0;orthogonalLoop=1;jettySize=auto;html=1;" parent="77e6c97f196da883-1" source="E34tmJ6UfjDeEhPb9iA5-68" target="E34tmJ6UfjDeEhPb9iA5-71" edge="1">
          <mxGeometry relative="1" as="geometry">
            <Array as="points">
              <mxPoint x="70" y="554" />
            </Array>
          </mxGeometry>
        </mxCell>
        <mxCell id="E34tmJ6UfjDeEhPb9iA5-78" style="edgeStyle=orthogonalEdgeStyle;rounded=0;orthogonalLoop=1;jettySize=auto;html=1;" parent="77e6c97f196da883-1" source="E34tmJ6UfjDeEhPb9iA5-75" target="E34tmJ6UfjDeEhPb9iA5-77" edge="1">
          <mxGeometry relative="1" as="geometry">
            <Array as="points">
              <mxPoint x="70" y="624" />
            </Array>
          </mxGeometry>
        </mxCell>
        <mxCell id="E34tmJ6UfjDeEhPb9iA5-82" style="edgeStyle=orthogonalEdgeStyle;rounded=0;orthogonalLoop=1;jettySize=auto;html=1;" parent="77e6c97f196da883-1" source="E34tmJ6UfjDeEhPb9iA5-77" target="E34tmJ6UfjDeEhPb9iA5-81" edge="1">
          <mxGeometry relative="1" as="geometry" />
        </mxCell>
        <mxCell id="E34tmJ6UfjDeEhPb9iA5-84" style="edgeStyle=orthogonalEdgeStyle;rounded=0;orthogonalLoop=1;jettySize=auto;html=1;" parent="77e6c97f196da883-1" source="E34tmJ6UfjDeEhPb9iA5-81" target="E34tmJ6UfjDeEhPb9iA5-83" edge="1">
          <mxGeometry relative="1" as="geometry" />
        </mxCell>
        <mxCell id="E34tmJ6UfjDeEhPb9iA5-86" style="edgeStyle=orthogonalEdgeStyle;rounded=0;orthogonalLoop=1;jettySize=auto;html=1;entryX=1;entryY=0.5;entryDx=0;entryDy=0;" parent="77e6c97f196da883-1" source="E34tmJ6UfjDeEhPb9iA5-83" target="E34tmJ6UfjDeEhPb9iA5-85" edge="1">
          <mxGeometry relative="1" as="geometry">
            <Array as="points">
              <mxPoint x="590" y="674" />
              <mxPoint x="503" y="674" />
            </Array>
          </mxGeometry>
        </mxCell>
        <mxCell id="E34tmJ6UfjDeEhPb9iA5-89" style="edgeStyle=orthogonalEdgeStyle;rounded=0;orthogonalLoop=1;jettySize=auto;html=1;entryX=-0.065;entryY=0.545;entryDx=0;entryDy=0;entryPerimeter=0;" parent="77e6c97f196da883-1" source="E34tmJ6UfjDeEhPb9iA5-85" target="E34tmJ6UfjDeEhPb9iA5-87" edge="1">
          <mxGeometry relative="1" as="geometry">
            <Array as="points">
              <mxPoint x="415" y="697" />
              <mxPoint x="673" y="697" />
              <mxPoint x="673" y="695" />
            </Array>
          </mxGeometry>
        </mxCell>
        <mxCell id="E34tmJ6UfjDeEhPb9iA5-91" style="edgeStyle=orthogonalEdgeStyle;rounded=0;orthogonalLoop=1;jettySize=auto;html=1;" parent="77e6c97f196da883-1" source="E34tmJ6UfjDeEhPb9iA5-87" target="E34tmJ6UfjDeEhPb9iA5-90" edge="1">
          <mxGeometry relative="1" as="geometry">
            <Array as="points">
              <mxPoint x="930" y="737" />
            </Array>
          </mxGeometry>
        </mxCell>
        <mxCell id="E34tmJ6UfjDeEhPb9iA5-92" style="edgeStyle=orthogonalEdgeStyle;rounded=0;orthogonalLoop=1;jettySize=auto;html=1;entryX=0;entryY=0.5;entryDx=0;entryDy=0;strokeColor=#7EA6E0;strokeWidth=2;" parent="77e6c97f196da883-1" source="E34tmJ6UfjDeEhPb9iA5-90" target="77e6c97f196da883-8" edge="1">
          <mxGeometry relative="1" as="geometry">
            <Array as="points">
              <mxPoint x="10" y="739" />
              <mxPoint x="10" y="67" />
            </Array>
          </mxGeometry>
        </mxCell>
        <mxCell id="E34tmJ6UfjDeEhPb9iA5-93" value="完成sso并回调" style="edgeLabel;html=1;align=center;verticalAlign=middle;resizable=0;points=[];" parent="E34tmJ6UfjDeEhPb9iA5-92" vertex="1" connectable="0">
          <mxGeometry x="-0.5053" y="-1" relative="1" as="geometry">
            <mxPoint as="offset" />
          </mxGeometry>
        </mxCell>
        <mxCell id="BoVAqwWq_iArVoqka5g1-1" style="edgeStyle=orthogonalEdgeStyle;rounded=0;orthogonalLoop=1;jettySize=auto;html=1;entryX=1;entryY=0.5;entryDx=0;entryDy=0;" edge="1" parent="77e6c97f196da883-1" source="E34tmJ6UfjDeEhPb9iA5-71" target="E34tmJ6UfjDeEhPb9iA5-75">
          <mxGeometry relative="1" as="geometry">
            <Array as="points">
              <mxPoint x="585" y="594" />
              <mxPoint x="328" y="594" />
            </Array>
          </mxGeometry>
        </mxCell>
        <mxCell id="E34tmJ6UfjDeEhPb9iA5-15" value="" style="edgeStyle=orthogonalEdgeStyle;rounded=0;orthogonalLoop=1;jettySize=auto;html=1;" parent="1" edge="1">
          <mxGeometry relative="1" as="geometry">
            <mxPoint x="630" y="523" as="targetPoint" />
          </mxGeometry>
        </mxCell>
      </root>
    </mxGraphModel>
  </diagram>
</mxfile>
